<svg width="35" height="35" viewBox="0 0 35 35" fill="none" xmlns="http://www.w3.org/2000/svg">
<path d="M17.401 6.34103C14.3593 6.34103 13.9775 6.35433 12.7829 6.4087C11.5905 6.4633 10.7766 6.65207 10.0645 6.92904C9.32785 7.21511 8.70297 7.59778 8.08043 8.22055C7.45743 8.84309 7.07476 9.46797 6.78775 10.2044C6.51008 10.9167 6.32108 11.7309 6.26742 12.9227C6.21398 14.1174 6.19998 14.4994 6.19998 17.5411C6.19998 20.5829 6.21352 20.9635 6.26765 22.1582C6.32248 23.3505 6.51125 24.1644 6.78799 24.8765C7.07429 25.6132 7.45696 26.238 8.07973 26.8606C8.70204 27.4836 9.32691 27.8672 10.0631 28.1533C10.7757 28.4302 11.5898 28.619 12.7819 28.6736C13.9766 28.728 14.3581 28.7413 17.3996 28.7413C20.4416 28.7413 20.8222 28.728 22.0169 28.6736C23.2092 28.619 24.024 28.4302 24.7366 28.1533C25.473 27.8672 26.097 27.4836 26.7193 26.8606C27.3423 26.238 27.725 25.6132 28.012 24.8768C28.2873 24.1644 28.4763 23.3503 28.5323 22.1584C28.586 20.9637 28.6 20.5829 28.6 17.5411C28.6 14.4994 28.586 14.1176 28.5323 12.923C28.4763 11.7306 28.2873 10.9167 28.012 10.2046C27.725 9.46797 27.3423 8.84309 26.7193 8.22055C26.0963 7.59755 25.4733 7.21488 24.7359 6.92904C24.0219 6.65207 23.2076 6.4633 22.0152 6.4087C20.8206 6.35433 20.4402 6.34103 17.3975 6.34103H17.401ZM16.3963 8.35939C16.6945 8.35892 17.0272 8.35939 17.401 8.35939C20.3915 8.35939 20.7459 8.37012 21.9268 8.42379C23.0188 8.47372 23.6115 8.65619 24.0063 8.80949C24.529 9.0125 24.9016 9.25516 25.2934 9.64717C25.6854 10.0392 25.9281 10.4125 26.1315 10.9352C26.2848 11.3295 26.4675 11.9222 26.5172 13.0142C26.5709 14.1949 26.5826 14.5496 26.5826 17.5386C26.5826 20.5276 26.5709 20.8823 26.5172 22.063C26.4673 23.155 26.2848 23.7476 26.1315 24.142C25.9285 24.6647 25.6854 25.0368 25.2934 25.4286C24.9014 25.8206 24.5292 26.0633 24.0063 26.2663C23.612 26.4203 23.0188 26.6023 21.9268 26.6522C20.7461 26.7059 20.3915 26.7175 17.401 26.7175C14.4104 26.7175 14.0559 26.7059 12.8753 26.6522C11.7832 26.6018 11.1906 26.4193 10.7955 26.266C10.2729 26.063 9.89952 25.8204 9.50752 25.4284C9.11551 25.0364 8.87284 24.664 8.66937 24.1411C8.51607 23.7467 8.33337 23.154 8.28367 22.062C8.23 20.8814 8.21927 20.5267 8.21927 17.5358C8.21927 14.5449 8.23 14.1921 8.28367 13.0114C8.3336 11.9194 8.51607 11.3267 8.66937 10.9319C8.87238 10.4092 9.11551 10.0359 9.50752 9.6439C9.89952 9.2519 10.2729 9.00923 10.7955 8.80576C11.1903 8.65176 11.7832 8.46976 12.8753 8.41959C13.9085 8.37292 14.3089 8.35892 16.3963 8.35659V8.35939ZM23.3796 10.2191C22.6376 10.2191 22.0355 10.8204 22.0355 11.5626C22.0355 12.3046 22.6376 12.9066 23.3796 12.9066C24.1216 12.9066 24.7236 12.3046 24.7236 11.5626C24.7236 10.8206 24.1216 10.2186 23.3796 10.2186V10.2191ZM17.401 11.7894C14.2246 11.7894 11.6493 14.3648 11.6493 17.5411C11.6493 20.7175 14.2246 23.2917 17.401 23.2917C20.5774 23.2917 23.1518 20.7175 23.1518 17.5411C23.1518 14.3648 20.5772 11.7894 17.4008 11.7894H17.401ZM17.401 13.8078C19.4628 13.8078 21.1344 15.4792 21.1344 17.5411C21.1344 19.6029 19.4628 21.2745 17.401 21.2745C15.339 21.2745 13.6677 19.6029 13.6677 17.5411C13.6677 15.4792 15.339 13.8078 17.401 13.8078V13.8078Z" fill="white"/>
</svg>
