<svg width="160" height="115" viewBox="0 0 160 115" fill="none" xmlns="http://www.w3.org/2000/svg">
<path d="M11.0156 101.834C9.24548 101.834 7.64277 101.439 6.20751 100.649C4.77225 99.8361 3.636 98.6999 2.79876 97.2407C1.96153 95.7815 1.54291 94.0951 1.54291 92.1814C1.54291 90.2677 1.94957 88.5932 2.76288 87.158C3.60012 85.6988 4.71245 84.5745 6.09987 83.7851C7.51121 82.9718 9.07804 82.5651 10.8004 82.5651C12.3074 82.5651 13.6589 82.9 14.855 83.5698C16.051 84.2396 16.9839 85.1725 17.6537 86.3686C18.3235 87.5407 18.6704 88.8923 18.6943 90.4232H5.48988V93.9755C5.48988 96.0805 5.95634 97.7909 6.88926 99.1065C7.8461 100.398 9.22156 101.044 11.0156 101.044C12.6662 101.044 14.1254 100.578 15.3932 99.6448C16.661 98.7119 17.4384 97.5038 17.7255 96.0207H18.5508C18.2159 97.7909 17.3667 99.2022 16.0032 100.255C14.6397 101.307 12.9772 101.834 11.0156 101.834ZM14.7473 89.5262C14.7473 87.445 14.4244 85.9021 13.7785 84.8974C13.1327 83.8688 12.128 83.3545 10.7645 83.3545C9.16176 83.3545 7.91787 83.9167 7.03279 85.041C6.14771 86.1653 5.64537 87.6603 5.52576 89.5262H14.7473ZM20.8309 101.475V100.757L23.522 100.398V73.8459L20.8309 73.4871V72.7695H27.1102V100.398L29.6219 100.757V101.475H20.8309ZM31.0978 101.475V100.757L33.7889 100.398V73.8459L31.0978 73.4871V72.7695H37.3771V100.398L39.8888 100.757V101.475H31.0978ZM51.6627 101.834C49.8926 101.834 48.2899 101.439 46.8546 100.649C45.4193 99.8361 44.2831 98.6999 43.4458 97.2407C42.6086 95.7815 42.19 94.0951 42.19 92.1814C42.19 90.2677 42.5967 88.5932 43.41 87.158C44.2472 85.6988 45.3595 84.5745 46.747 83.7851C48.1583 82.9718 49.7251 82.5651 51.4474 82.5651C52.9545 82.5651 54.306 82.9 55.5021 83.5698C56.6981 84.2396 57.631 85.1725 58.3008 86.3686C58.9706 87.5407 59.3175 88.8923 59.3414 90.4232H46.137V93.9755C46.137 96.0805 46.6034 97.7909 47.5363 99.1065C48.4932 100.398 49.8686 101.044 51.6627 101.044C53.3133 101.044 54.7725 100.578 56.0403 99.6448C57.3081 98.7119 58.0855 97.5038 58.3726 96.0207H59.1979C58.863 97.7909 58.0138 99.2022 56.6503 100.255C55.2868 101.307 53.6243 101.834 51.6627 101.834ZM55.3944 89.5262C55.3944 87.445 55.0715 85.9021 54.4256 84.8974C53.7797 83.8688 52.7751 83.3545 51.4116 83.3545C49.8088 83.3545 48.565 83.9167 47.6799 85.041C46.7948 86.1653 46.2925 87.6603 46.1728 89.5262H55.3944ZM79.5982 102.192C75.723 102.192 72.8285 101.427 70.9149 99.8959C69.0251 98.3411 68.0802 96.2599 68.0802 93.6525C68.0802 91.1408 68.9892 89.2032 70.8072 87.8397C72.6491 86.4523 75.0532 85.6868 78.0194 85.5433V85.4357C75.0532 85.0529 72.8525 84.3473 71.4172 83.3187C70.0059 82.2661 69.3002 80.6036 69.3002 78.3311C69.3002 76.3218 70.1015 74.7788 71.7043 73.7024C73.3309 72.602 75.5914 72.0518 78.4859 72.0518C80.4235 72.0518 82.0382 72.5183 83.3299 73.4512C84.6455 74.3841 85.3034 75.628 85.3034 77.1829C85.3034 77.9723 85.0761 78.5943 84.6216 79.0488C84.191 79.4793 83.6887 79.6946 83.1146 79.6946C82.5166 79.6946 82.0142 79.5152 81.6076 79.1564C81.2009 78.7976 80.9976 78.2713 80.9976 77.5776C82.0023 77.1231 82.5046 76.3696 82.5046 75.3171C82.5046 74.5755 82.1817 73.9895 81.5358 73.5589C80.8899 73.1044 80.0049 72.8771 78.8806 72.8771C77.2539 72.8771 75.9502 73.3555 74.9695 74.3124C74.0126 75.2692 73.5342 76.549 73.5342 78.1517C73.5342 80.4481 74.204 82.1465 75.5436 83.2469C76.9071 84.3233 78.8925 84.9333 81.4999 85.0769V85.8662C78.6772 86.0337 76.5483 86.7752 75.113 88.0909C73.7017 89.4066 72.996 91.2604 72.996 93.6525C72.996 95.2553 73.295 96.6427 73.893 97.8148C74.515 98.963 75.3403 99.8481 76.3689 100.47C77.4214 101.068 78.5935 101.367 79.8853 101.367C81.8229 101.367 83.4017 100.781 84.6216 99.6089C85.8416 98.4128 86.4516 96.7025 86.4516 94.4778C86.4516 93.5927 86.32 92.6479 86.0569 91.6432L84.6575 91.4279C83.5811 91.2126 82.7319 91.105 82.1099 91.105C81.0813 91.105 80.2202 91.2604 79.5264 91.5714C78.8567 91.8824 78.5218 92.3847 78.5218 93.0784C78.5218 93.4133 78.6294 93.6645 78.8447 93.832C79.06 93.9994 79.3351 94.0831 79.67 94.0831C79.9809 94.0831 80.2919 93.9994 80.6029 93.832C80.9139 93.6645 81.1411 93.4253 81.2846 93.1143C81.8587 93.2579 82.2893 93.509 82.5764 93.8678C82.8873 94.2027 83.0428 94.6094 83.0428 95.0878C83.0428 95.6619 82.8275 96.1643 82.397 96.5948C81.9903 97.0254 81.476 97.2407 80.8541 97.2407C79.9451 97.2407 79.1915 96.846 78.5935 96.0566C77.9955 95.2672 77.6965 94.2984 77.6965 93.1502C77.6965 92.2173 77.9237 91.3561 78.3782 90.5667C78.8327 89.7773 79.4906 89.1554 80.3517 88.7009C81.2368 88.2225 82.2654 87.9833 83.4375 87.9833C84.5857 87.9833 85.9253 88.1029 87.4563 88.3421C88.6523 88.5574 89.657 88.665 90.4703 88.665C91.5946 88.665 92.4916 88.4976 93.1614 88.1627C93.8551 87.8039 94.202 87.3135 94.202 86.6915C94.202 86.3566 94.0944 86.1055 93.8791 85.938C93.6877 85.7466 93.4246 85.651 93.0897 85.651C92.7548 85.651 92.4318 85.7347 92.1209 85.9021C91.8338 86.0696 91.6185 86.3207 91.475 86.6556C90.877 86.5121 90.4344 86.2729 90.1474 85.938C89.8603 85.5792 89.7168 85.1606 89.7168 84.6822C89.7168 84.1081 89.9201 83.6057 90.3268 83.1751C90.7574 82.7446 91.2836 82.5293 91.9056 82.5293C92.8146 82.5293 93.5442 82.8881 94.0944 83.6057C94.6685 84.2994 94.9555 85.1965 94.9555 86.2968C94.9555 90.0524 93.1614 91.9302 89.5733 91.9302C88.5447 91.9302 87.6955 91.8824 87.0257 91.7867C87.2171 92.7436 87.3127 93.6167 87.3127 94.4061C87.3127 96.8699 86.619 98.7836 85.2316 100.147C83.8442 101.511 81.9664 102.192 79.5982 102.192ZM112.01 101.834C110.239 101.834 108.637 101.439 107.201 100.649C105.766 99.8361 104.63 98.6999 103.793 97.2407C102.956 95.7815 102.537 94.0951 102.537 92.1814C102.537 90.2677 102.944 88.5932 103.757 87.158C104.594 85.6988 105.706 84.5745 107.094 83.7851C108.505 82.9718 110.072 82.5651 111.794 82.5651C113.301 82.5651 114.653 82.9 115.849 83.5698C117.045 84.2396 117.978 85.1725 118.648 86.3686C119.318 87.5407 119.664 88.8923 119.688 90.4232H106.484V93.9755C106.484 96.0805 106.95 97.7909 107.883 99.1065C108.84 100.398 110.216 101.044 112.01 101.044C113.66 101.044 115.119 100.578 116.387 99.6448C117.655 98.7119 118.432 97.5038 118.719 96.0207H119.545C119.21 97.7909 118.361 99.2022 116.997 100.255C115.634 101.307 113.971 101.834 112.01 101.834ZM115.741 89.5262C115.741 87.445 115.418 85.9021 114.773 84.8974C114.127 83.8688 113.122 83.3545 111.758 83.3545C110.156 83.3545 108.912 83.9167 108.027 85.041C107.142 86.1653 106.639 87.6603 106.52 89.5262H115.741ZM130.265 102.192L122.587 83.9645L120.255 83.6057V82.8881H129.189V83.6057L126.606 84.0722L132.024 97.5636L136.868 84.5386L133.71 83.6416V82.924H140.133V83.6416L137.872 84.5028L131.27 102.192H130.265ZM150.099 101.834C148.329 101.834 146.726 101.439 145.291 100.649C143.855 99.8361 142.719 98.6999 141.882 97.2407C141.045 95.7815 140.626 94.0951 140.626 92.1814C140.626 90.2677 141.033 88.5932 141.846 87.158C142.683 85.6988 143.796 84.5745 145.183 83.7851C146.594 82.9718 148.161 82.5651 149.883 82.5651C151.39 82.5651 152.742 82.9 153.938 83.5698C155.134 84.2396 156.067 85.1725 156.737 86.3686C157.407 87.5407 157.753 88.8923 157.777 90.4232H144.573V93.9755C144.573 96.0805 145.039 97.7909 145.972 99.1065C146.929 100.398 148.305 101.044 150.099 101.044C151.749 101.044 153.208 100.578 154.476 99.6448C155.744 98.7119 156.522 97.5038 156.809 96.0207H157.634C157.299 97.7909 156.45 99.2022 155.086 100.255C153.723 101.307 152.06 101.834 150.099 101.834ZM153.83 89.5262C153.83 87.445 153.508 85.9021 152.862 84.8974C152.216 83.8688 151.211 83.3545 149.848 83.3545C148.245 83.3545 147.001 83.9167 146.116 85.041C145.231 86.1653 144.728 87.6603 144.609 89.5262H153.83Z" fill="white"/>
<path d="M101.97 60.7342C100.042 60.4931 97.7532 60.3729 95.7056 59.168C93.658 57.9631 91.369 57.1203 89.3212 55.5539C87.0322 53.7474 85.7071 51.4585 84.6232 48.9284C84.1417 47.8444 83.7796 46.7605 83.1779 45.7966C81.6117 42.7851 77.8774 42.5439 75.9498 45.3151C75.7087 45.6764 75.4684 46.1588 75.1062 46.6402C73.4198 49.6518 70.7696 51.5794 68.1195 53.627C64.9877 55.916 61.615 57.8435 57.6396 58.5661C53.7844 59.2887 49.9301 59.1686 46.0749 57.8435C43.3045 56.8797 40.7744 55.3134 38.4856 53.748C36.0766 52.1818 34.0288 49.8928 32.7037 47.2435C30.5358 43.1481 29.3308 38.8115 27.8857 34.5949C27.163 32.3059 26.4404 30.0172 25.2355 27.9694C24.9952 27.0047 24.7541 26.2821 24.6339 25.6795C24.2726 24.3544 24.3927 23.6318 25.5977 22.9091C26.4413 22.4276 26.8027 21.8252 27.043 20.9816C28.6092 15.561 30.7771 10.2605 33.066 4.96025C34.271 2.18986 36.3187 1.10506 38.9688 0.503403C39.9326 0.262245 41.0166 0.142084 41.9804 0.142084C44.6305 -0.0990745 48.726 3.03336 49.0873 5.56262C49.2075 6.52641 48.3647 7.85159 47.4009 8.333C46.5573 8.81448 45.7145 8.57416 45.112 7.85153C44.3893 7.12889 43.6667 6.52641 42.9441 5.8038C42.2215 5.20132 41.4988 4.59884 40.6551 4.11738C38.9687 3.39475 37.8847 3.63591 36.6799 5.08118C35.3548 6.76759 34.6322 8.69522 34.0298 10.7428C33.066 13.5132 31.7408 16.1634 30.6568 18.9338C30.5367 19.1749 30.4157 19.4152 30.2955 19.6564C29.3317 21.7041 29.5729 21.9454 31.8618 21.9454C37.6437 21.9454 43.3054 22.9092 48.9672 24.2344C51.9788 24.957 54.9903 25.1981 57.8816 26.0409C61.3745 27.0047 64.5072 28.4499 67.6387 30.0161C72.2164 32.184 76.9144 33.5091 81.9738 33.7502C84.5039 33.8704 86.7918 33.0276 89.2019 32.3049C92.2134 31.3411 95.2249 30.1371 98.1162 29.0523C102.333 27.486 106.789 27.0045 111.246 26.5222C113.776 26.281 116.306 25.6785 118.956 25.3172C121.124 25.076 123.292 25.4374 125.46 24.8357C126.304 24.5946 126.665 24.4744 126.424 23.5106C125.822 19.4152 124.979 15.4397 123.654 11.4645C123.292 10.2596 122.57 9.41679 121.726 8.57324C120.762 7.60944 119.437 7.8506 118.233 8.45308C116.908 9.05556 115.703 9.89835 114.86 10.9832C114.499 11.4647 114.138 11.947 113.655 12.3083C112.812 13.0309 112.089 12.9108 111.366 12.0671C111.005 11.5857 110.644 10.9832 110.402 10.3807C109.8 9.05562 110.041 8.33301 111.246 7.61035C112.33 7.00787 113.414 6.52639 114.619 6.16507C115.703 5.80375 116.787 5.44244 117.872 4.96012C119.799 3.99632 122.931 5.08028 124.979 7.24909C127.388 9.89923 127.749 13.1519 128.472 16.4039C128.833 18.2105 128.833 20.138 129.315 21.9455C129.556 22.9093 129.797 23.3908 130.882 23.632C132.568 23.9933 133.049 24.9571 132.448 26.5232C131.123 30.2573 130.882 34.3528 128.834 37.8468C128.472 38.5694 128.352 39.5332 127.99 40.2558C125.581 46.2788 122.087 51.4582 116.908 55.4337C113.293 58.4452 106.908 60.6139 101.969 60.7342L101.97 60.7342ZM51.7376 37.4853C52.4602 37.3651 52.9425 37.0038 52.9425 36.1602C51.8577 36.1602 52.4602 37.3643 51.7376 37.4853V39.2918C51.9779 38.6894 52.219 38.0869 51.7376 37.4853ZM59.326 33.389C59.6873 33.389 60.0486 33.5091 60.4099 33.5091C60.7712 33.5091 61.2535 33.6293 61.1325 33.0276C61.1325 32.4252 60.6511 32.7865 60.4099 32.7865C59.8083 32.6663 59.6873 33.1486 59.326 33.389C59.2058 32.6663 59.9284 32.184 60.0486 31.4614C60.0486 31.2202 60.0486 30.9799 59.9284 30.8589C59.5671 30.7388 59.447 30.8589 59.2058 31.1001C58.7235 32.0639 59.2058 32.6662 59.326 33.389ZM38.2453 33.0276C38.0041 33.1478 37.884 33.1478 37.6428 33.2688C37.884 31.9437 38.0041 30.7387 38.2453 28.9322C36.8 30.2573 36.1975 31.5823 36.1975 32.9074C36.1975 34.714 35.3539 36.1601 34.7523 37.7254C34.6321 37.3641 34.7523 37.0028 34.2708 36.8818C33.9095 36.8818 33.6683 37.1229 33.7893 37.4843C33.9095 38.0867 33.5482 38.6892 34.0305 39.2908C34.6329 38.9295 34.0305 37.9657 34.7531 37.7246C34.7531 38.3271 34.3918 38.9295 34.9943 39.7723C35.7169 37.2422 36.3194 35.0743 37.6444 33.1467C37.7646 34.2307 37.7646 35.3146 37.8856 36.3994C38.1267 37.7245 37.5242 38.6884 36.9218 39.7723C36.1991 40.8563 36.0781 40.8563 36.8016 42.1813C37.5242 40.2537 38.3679 38.4472 38.8493 36.6397C39.0905 35.6759 38.2469 36.3985 37.8855 36.3985C38.2469 35.6759 38.6082 34.8323 38.8493 34.1095C38.9695 33.7482 39.0905 33.2659 38.488 33.1458C38.2469 32.5433 38.9695 31.9408 38.7292 31.3392C38.3662 31.8232 38.0049 32.3047 38.2452 33.0273L38.2453 33.0276ZM41.0165 31.1001C40.7754 32.305 39.2099 33.1478 39.6914 34.9552C40.293 33.51 41.6181 32.6663 41.0165 31.1001C40.7754 30.0161 42.4618 29.6548 41.8602 28.4499C40.535 28.5701 40.1737 29.6549 39.9326 30.4977C39.5704 31.8236 40.6544 31.1001 41.0165 31.1001ZM106.668 34.7141C106.065 34.594 106.065 33.8705 105.704 33.389C105.463 33.8705 105.223 34.2326 105.223 34.5939C105.102 35.1964 104.379 36.1602 105.102 36.5215C106.066 37.003 105.946 35.6779 106.307 35.1964C106.427 35.0754 106.547 34.8351 106.668 34.7141C106.788 33.8705 106.909 33.0277 106.668 32.3051C106.547 33.1487 106.306 33.8714 106.668 34.7141ZM55.8332 50.3743C56.1945 49.2903 57.2785 48.3265 56.9172 47.0013C58.7238 45.6762 60.2901 43.9898 60.6513 41.4597H59.9286C58.6035 42.5437 58.6035 42.5437 58.1221 40.9782C58.1221 40.7371 58.0019 40.6169 58.0019 40.3758C59.8085 40.3758 60.2909 39.412 59.5681 37.1231C59.5681 38.4482 58.8455 39.4121 58.1229 40.3758C57.4002 40.7371 57.5204 41.7009 56.7978 42.1823C57.0389 38.8094 57.4002 35.3156 57.7616 31.5815C56.3163 32.5453 56.3163 33.6293 56.4364 34.8342C56.6776 36.7618 55.834 40.2547 54.6299 41.7009C55.4735 40.2556 54.6299 38.9305 54.2685 37.4844C52.9434 40.8573 51.6184 44.23 50.2933 47.844C51.4983 47.6028 52.0999 47.1214 52.2209 46.0374C52.2209 45.1938 52.7024 44.5922 53.7872 44.9535C53.3057 46.1584 52.462 50.1329 52.5822 51.0968C54.8712 50.7354 55.1123 48.9289 55.3526 47.1216L55.2324 47.2417C56.3164 46.6392 56.4374 45.4351 56.9188 44.4713C57.039 44.11 57.16 43.7487 57.6415 43.9898C58.0028 44.231 57.8826 44.5923 57.7616 44.9536C57.5205 45.6763 56.7978 46.1586 56.918 47.0014C55.4719 47.724 55.5921 49.0491 55.8332 50.3743C55.7131 51.5792 54.5081 52.422 54.8694 53.8672C55.8332 53.5059 55.8332 52.301 56.5558 52.0606C56.5558 52.3018 56.4357 52.6631 56.4357 52.9043C56.4357 54.4705 56.5558 54.5907 58.0019 54.2294C60.1698 53.7479 61.9771 52.7841 63.9047 51.6993C64.266 51.4581 64.6274 51.338 64.5072 50.8556C64.266 49.5305 65.5912 47.9644 64.266 46.7602C64.1459 46.64 64.6274 46.2787 64.1459 46.1577C62.2183 47.9643 62.3393 50.9757 60.0504 53.0244C59.5689 50.9767 61.2554 48.929 59.0866 47.7239C58.7253 47.9651 58.4841 48.4466 58.364 48.9289C58.1228 49.5313 57.159 50.3741 58.7253 50.7354C58.9665 50.8556 58.4841 52.0606 58.364 51.9404C57.4002 50.4951 57.159 52.0606 56.5574 52.3017C56.3163 51.9404 56.5574 51.4581 56.5574 50.9766C56.4356 50.4943 56.3147 50.2541 55.8332 50.3743ZM46.6778 53.3858C47.4004 53.5059 48.244 53.8673 48.9667 53.8673C49.6895 53.8673 50.2918 53.1446 50.7733 54.2286C50.8935 54.3487 51.2548 54.1084 51.3758 53.8673C51.4959 53.1446 51.3758 52.422 50.8943 52.0607C50.2918 51.5792 50.0507 50.8557 49.8103 50.1331C48.6054 50.7356 49.5692 52.0607 48.6054 52.6632C48.2441 52.5431 47.8828 52.3019 47.5214 52.1818C47.6416 51.5793 47.8828 50.9768 47.8828 50.2542C47.8828 49.5316 48.1239 48.5678 47.1601 48.2065C47.7626 47.8451 48.4852 47.3628 48.7264 46.7612C48.8465 46.52 48.6062 46.0385 48.6062 45.6772C48.6062 45.3159 48.9675 45.3159 49.2087 45.4361C49.4498 45.5562 49.4499 46.2797 49.9313 45.7974C50.2926 45.5562 50.4128 45.0747 50.2926 44.5924C50.1725 44.111 49.6902 44.4723 49.449 44.2311C49.0877 43.99 48.7264 44.5924 48.2441 44.2311C48.6054 42.6649 49.328 41.0993 49.2078 39.6534C49.0877 37.967 50.4128 36.883 50.0515 35.1965C49.6902 33.7513 50.533 32.185 49.8103 30.4986C49.2079 31.3422 49.0877 32.185 48.9667 33.1487C48.8465 35.1964 48.4852 37.2442 48.0029 39.292C47.4004 41.8221 46.1963 44.3514 46.4366 47.1215C46.4366 47.4828 46.1955 47.724 46.0753 48.0853C45.3527 49.5306 45.9552 50.9766 47.5206 51.9405C47.2803 52.543 47.1601 53.0245 46.6778 53.3858C46.5576 53.0245 46.919 52.5421 46.3165 52.3018C44.8712 51.6993 44.2688 50.6154 44.2688 48.9289C44.2688 47.845 43.9074 46.8812 43.7873 45.6763C42.9436 47.3627 42.5823 48.9289 43.1848 50.0129C44.0284 51.338 44.3898 53.1446 46.5577 53.2655L46.6778 53.3858ZM103.776 47.3627C104.499 46.7603 104.62 45.9175 104.62 45.0738C104.5 43.1462 105.101 41.3397 105.222 39.5321C105.222 38.9296 105.825 38.4482 105.222 37.7255C104.62 38.207 104.379 38.9305 104.259 39.6531C103.415 42.1832 103.535 44.8326 103.776 47.3627C103.535 47.3627 103.174 47.3626 103.174 47.7239C103.054 49.4104 102.692 51.0969 103.174 52.7833C103.896 51.0969 103.776 49.2903 103.776 47.3627ZM119.918 45.315C120.64 45.4352 121.002 44.9537 121.243 44.4714C122.688 41.2187 124.134 38.0869 124.977 34.5931C125.218 33.6293 125.459 32.4253 124.375 31.5816C124.013 33.1479 123.531 34.4729 123.772 35.9182C123.772 36.1594 123.772 36.5207 123.652 36.7618C122.688 38.2071 122.447 40.0145 121.845 41.5798C121.364 42.905 120.761 44.23 119.918 45.3139C119.074 46.5189 118.231 47.6029 117.99 49.1691C118.954 47.965 120.159 47.0012 119.918 45.3148L119.918 45.315ZM105.101 53.5059C105.343 53.1446 105.824 52.6623 105.945 52.301C106.186 50.4944 107.15 48.9281 106.909 47.0005C106.789 46.0367 107.39 45.5552 108.234 45.4342C109.198 45.3141 109.8 44.5906 109.318 44.3503C108.234 43.8688 108.595 43.2663 108.836 42.5437C108.957 42.0622 108.957 41.5799 108.716 41.0984C107.632 41.3396 107.632 42.1824 107.632 43.026C107.512 43.9898 107.391 44.9536 106.427 45.435C106.307 45.435 106.186 44.5914 105.825 45.3148C105.584 45.6762 105.464 45.9173 106.066 46.2786C106.547 46.6399 106.427 47.1223 105.946 47.3626C105.102 47.7239 104.741 48.3264 105.223 49.049C105.223 49.1692 105.826 48.6877 105.705 49.2902C105.585 49.8926 105.464 50.3741 105.343 50.9766C105.101 51.8194 105.101 52.6631 105.101 53.5059C104.499 53.5059 103.896 53.626 103.535 54.3494C103.415 54.7108 103.294 55.1931 103.655 55.5544C103.896 55.7956 104.258 55.7956 104.619 55.6746C104.98 55.5544 105.101 55.1931 104.98 54.8309C105.101 54.3495 105.101 53.8672 105.101 53.5059ZM108.835 53.6269C108.835 53.3858 108.835 53.1454 108.956 53.0244C110.281 51.5792 110.642 49.7718 110.642 47.8451C110.642 47.6039 110.762 47.2426 110.883 47.0014C111.606 44.3513 112.69 41.7009 111.244 38.6894C111.365 40.496 110.883 41.9421 110.642 43.3874C110.04 46.1578 109.798 48.929 108.474 51.4583C108.233 52.0607 107.993 52.6632 107.872 53.2648C107.751 53.8673 108.353 53.6261 108.594 53.6261C108.714 54.1076 107.872 54.8311 108.835 55.0714C109.438 55.1916 109.799 54.5899 109.799 53.9875C109.799 53.6261 110.161 53.1438 109.438 52.9035C109.318 53.1447 109.077 53.3858 108.835 53.6269ZM116.786 43.1462C116.666 42.4235 117.389 41.8211 116.906 40.7372C116.665 41.0985 116.545 41.3396 116.425 41.5808C116.184 42.0623 115.822 42.3034 115.341 42.0623C114.979 41.8211 115.1 41.4598 115.221 41.0985C115.702 39.2919 116.184 37.4844 116.666 35.678C117.027 34.594 116.786 33.7504 115.943 32.7867C115.1 36.1596 114.859 39.5323 113.775 42.7849C113.775 42.9051 113.655 43.1463 113.775 43.1463C114.739 44.11 114.257 45.5553 114.739 46.6392C114.98 46.398 115.221 46.0367 115.462 45.7956C115.462 46.1569 115.221 46.5182 115.582 46.7593C115.823 46.8795 116.063 46.7593 116.305 46.398C117.147 45.5561 117.87 44.4712 116.786 43.1462ZM91.2483 35.798C90.5257 35.5569 90.1644 35.9182 89.9232 36.5207C89.5619 37.3643 89.2006 38.2071 88.8393 39.1708C88.3578 38.3272 88.9594 37.4844 88.9594 36.5207C87.1529 38.0869 86.6705 39.8936 87.1529 41.9412C87.273 42.5437 87.6343 42.905 87.5142 43.6276C87.1529 45.7955 87.9957 47.7231 89.0804 49.5304C89.3216 50.0119 89.5619 50.8555 90.4055 50.6144C91.008 50.3732 91.1282 48.928 90.5257 48.3254C90.5257 48.3254 90.0442 48.5666 89.9232 47.9641C89.8031 47.0003 89.6821 46.1575 89.9232 45.1937C90.1644 44.1097 90.4047 43.146 90.6459 42.0619C90.766 41.4595 91.0072 40.7368 90.4047 39.8941C90.1635 41.099 90.0434 41.9418 89.8022 42.9056C89.8022 43.2669 89.6821 43.8694 89.0796 43.8694C88.9594 43.5081 88.7183 43.0258 88.8384 42.9056C89.6821 41.5805 89.3199 39.6529 90.766 38.4487C91.0071 38.3286 91.3685 37.7261 91.0071 37.485C89.8022 36.7615 91.0072 36.28 91.2483 35.7977C91.6096 35.6775 92.0919 36.2792 92.3323 35.4364C92.3323 35.1952 92.5734 34.9549 92.2121 34.9549C91.7306 34.8347 91.4895 35.196 91.2483 35.5574V35.7977L91.2483 35.798ZM43.0639 42.3034C42.8228 40.9783 43.7866 39.7733 42.5824 38.9305C42.7026 37.3642 42.4623 35.6778 43.3051 34.1124C44.0277 32.7873 43.9076 32.7873 43.5462 31.2212C41.1372 35.7989 39.6911 40.4969 40.0533 45.4351C39.4508 45.4351 39.2097 45.315 38.8484 45.315C39.2097 46.5199 39.0895 48.0854 41.0162 48.8079C40.6549 47.1215 41.7389 46.0375 42.1002 44.8327C42.3413 44.2302 42.7027 44.1101 43.3051 44.2302C43.9076 44.2302 44.2689 44.4714 44.2689 45.194C44.2689 45.6755 44.1488 46.1578 44.7504 46.6393C45.594 45.6755 46.3167 44.8327 45.473 43.2664C44.9916 42.3026 45.3529 40.9774 46.0755 39.8935C47.0393 38.4482 47.4006 36.0383 47.0393 34.3518C46.3167 35.3156 46.9192 36.7609 45.7142 37.8448C45.8344 36.3995 45.8344 35.1946 46.0755 33.9896C46.0755 33.7484 47.0393 33.7484 46.3167 33.267C45.9554 33.0258 45.473 33.267 45.3529 33.8694C45.1117 35.676 43.0639 37.1221 44.3891 39.1699C44.6302 39.5313 44.3891 40.1337 44.1479 40.6152C43.6656 40.9782 43.4252 41.5807 43.0639 42.3034ZM93.5371 53.6269C93.6573 53.2656 93.8984 53.0244 93.7783 52.9043C93.2968 51.338 94.6219 49.4113 92.9346 47.9652C92.8145 47.845 92.9346 47.3627 92.9346 47.1215C92.9346 45.6763 92.9346 44.2303 93.2959 42.7849C93.5371 41.701 93.7774 40.7372 93.8984 39.6532C93.8984 39.2918 94.2597 38.6894 93.2959 38.5692C92.5733 38.5692 92.091 38.449 91.9708 39.4128C91.8507 40.8581 91.4893 42.1832 91.2482 43.6294V44.1109C91.6095 44.8335 91.7297 43.0269 91.9708 43.9907C92.091 44.4722 91.8507 44.9545 91.7297 45.436C91.4885 46.8813 91.7297 48.4475 91.1272 49.8928C90.886 50.6155 92.091 51.218 91.8498 51.6994C91.3683 53.3858 92.8136 53.1446 93.5371 53.6269ZM64.1446 40.9783C63.422 42.6647 63.0607 44.5923 62.0969 46.2788C61.9767 46.52 61.8557 46.6401 61.8557 46.8813C61.8557 47.2426 62.0969 47.2426 62.4582 47.3628C62.8195 47.3628 63.0607 47.3628 62.9397 47.0014C62.5784 44.9537 64.5059 44.3513 65.4698 43.1463C65.5899 43.0261 66.0723 43.1463 66.5537 43.2664C66.4336 44.5915 65.8311 45.9165 65.9513 47.3619C66.3126 47.0005 66.5537 46.7594 66.5537 46.5182C67.0352 45.1931 67.6377 43.9881 67.7587 42.663C66.9151 42.4219 66.1924 41.8194 65.3497 41.9404C65.2295 41.9404 64.6271 42.0606 64.5061 42.1816C64.2649 41.7009 64.5059 41.2195 64.1446 40.9783ZM99.0783 46.64C99.1985 46.64 99.4396 46.7601 99.5598 46.7601C100.765 44.23 101.728 41.7008 101.728 38.9306C102.33 39.1717 101.848 40.0145 102.45 40.0145C103.173 40.0145 102.932 39.2919 103.053 38.8096V37.966C103.173 37.1223 102.571 37.3635 102.089 37.2433C101.245 37.1232 100.884 37.8458 100.764 38.3273C100.162 41.0985 99.6808 43.8696 99.0783 46.64ZM66.072 33.5099C65.8308 34.5939 65.5905 35.5577 65.4695 36.5215C65.3493 36.8828 65.4695 37.2441 65.951 37.3651C66.4325 37.4852 66.5535 37.0038 66.5535 36.6425C66.4333 35.6787 67.0349 35.6787 67.7584 35.5585C68.4811 35.3173 68.4811 35.9198 68.7222 36.2811C69.2037 37.1248 69.686 38.2087 71.1312 37.6063C69.9271 35.4367 68.6021 34.3527 66.072 33.5099ZM52.4605 30.7387C51.3766 32.3049 49.5693 40.9783 49.9304 43.0259C50.4119 40.7369 51.6168 38.6893 51.3757 36.1592C51.3757 35.5567 51.4959 34.8341 51.9782 34.3526C52.942 33.3888 52.7009 32.1849 52.4605 30.7387ZM96.0674 47.2425C98.2353 42.0631 98.3564 41.2194 97.6337 39.2918C97.0312 42.0622 96.5497 44.7124 96.0674 47.2425ZM110.644 54.2292C112.45 54.3494 112.089 53.0243 112.45 52.1815C113.173 50.3749 113.173 50.3749 113.053 49.2902C111.969 50.8556 111.125 52.4219 110.644 54.2292ZM115.823 47.6037C114.257 48.8086 113.655 50.6152 113.293 53.0242C115.22 51.3378 115.341 49.4101 115.823 47.6037ZM93.5377 47.1213H94.0192C94.2604 45.4349 94.5007 43.6284 94.8629 41.9419C94.8629 41.7008 95.104 41.3395 94.6217 41.2193C94.2604 41.0992 94.0192 41.4605 94.0192 41.7008C93.7781 43.6284 93.1756 45.3148 93.5377 47.1213ZM96.6695 38.2077C95.5856 40.7378 95.1033 43.5082 94.8629 46.3986C95.2243 46.2784 95.4654 46.1574 95.4654 46.1574C95.7057 43.5081 96.3082 40.8578 96.6695 38.2077ZM95.4646 38.0867C96.9098 36.4002 97.151 35.5565 96.7897 33.2686C96.3082 33.0275 96.067 33.5098 95.5847 33.63C95.2234 33.63 94.7411 33.5098 94.5008 34.1114C94.6209 34.8341 95.3444 34.2316 95.4646 34.5929C95.7057 35.0744 96.9098 34.8341 96.1872 35.7979C95.7057 36.2802 95.4646 37.0026 95.4646 38.0867ZM121.002 33.1484C120.28 33.992 119.677 37.9664 119.797 39.6529C120.641 37.485 121.002 35.3163 121.002 33.1484ZM100.042 48.206C99.0781 49.7723 99.4394 51.0973 99.9217 52.4226C100.042 52.6637 100.163 52.7839 100.403 52.6637C100.644 52.6637 100.765 52.4226 100.765 52.1823C100.885 50.9765 100.765 49.6511 100.042 48.206ZM96.0667 54.9516C95.8255 53.6265 95.344 52.9039 95.223 51.9401C95.1029 51.0965 95.3432 50.1335 94.5004 49.5311C94.6205 50.6151 94.7415 51.8201 94.5004 52.7838C94.0189 54.3492 94.8617 54.5903 96.0667 54.9516ZM101.367 36.28C101.608 34.9548 101.97 33.871 102.692 33.0273C102.812 32.7861 102.933 32.5458 102.933 32.1837C102.933 31.8223 102.933 31.461 102.572 31.34C102.091 31.2199 101.608 31.4602 101.608 31.9425C101.728 33.1475 101.127 34.1104 100.886 35.1952C100.885 35.4363 100.885 35.7976 101.367 36.28ZM38.1251 46.1573C38.3663 43.5072 38.3663 43.5072 37.5226 42.3021C36.5588 43.9894 36.6798 44.4709 38.1251 46.1573ZM63.6628 37.1228C63.4217 39.1705 62.2176 40.8568 61.495 43.266C63.1814 41.7006 64.0242 39.2915 63.6628 37.1228ZM111.486 49.1689C112.45 47.8437 112.931 46.2776 112.931 44.3508C111.968 45.9171 111.486 47.3624 111.486 49.1689ZM58.0012 30.8594C57.3987 29.8956 56.7962 30.1368 56.3148 30.0158C55.2308 29.5343 54.9897 30.3771 54.7485 31.0997C54.7485 31.2199 54.7485 31.5812 54.8687 31.7022C55.1098 31.9434 55.4712 31.9434 55.5913 31.5821C55.9535 30.6183 56.7971 30.7384 58.0012 30.8594ZM49.328 28.6907C49.2078 28.6907 49.0868 28.5705 48.9667 28.5705C48.3642 29.7755 47.8827 30.9795 47.2803 32.0635C47.1601 32.4248 47.0391 32.7861 47.5214 32.9071C47.7626 33.0273 48.0029 32.666 48.1239 32.4256C48.6054 31.2207 48.9667 30.0158 49.328 28.6907ZM116.425 48.8077C118.111 47.1213 118.834 45.4348 118.714 43.7483C117.991 45.5557 117.268 47.2421 116.425 48.8077ZM38.9683 40.3756C39.0885 40.4958 39.2095 40.4958 39.3297 40.6168C39.8111 38.9304 41.0161 37.485 40.4136 35.5574C40.0531 37.1228 39.5708 38.8094 38.9683 40.3756ZM118.954 33.8712C118.473 35.0761 117.871 36.2802 118.232 37.7263C118.954 36.5214 119.196 35.1962 118.954 33.8712ZM71.9747 40.2556C71.131 41.3396 71.131 42.6646 70.8907 43.9897C72.8183 43.146 72.0948 41.5807 71.9747 40.2556ZM66.5541 49.5313C67.5179 48.8087 68.722 48.3264 68.4817 46.64C67.1566 47.1215 66.7953 48.2063 66.5541 49.5313ZM96.9103 52.3017C96.9103 53.747 97.1515 54.9518 97.6329 55.193C97.8741 55.3131 98.1144 55.193 98.1144 54.9518C98.4757 53.8679 97.7531 53.2654 97.1506 52.5428C97.2716 52.4218 97.1506 52.4219 96.9103 52.3017ZM45.1121 27.1253C44.0281 27.2455 42.8231 26.5229 41.8594 27.6068C42.8232 27.1254 44.0281 28.4505 45.1121 27.1253ZM54.3878 53.5063C54.3878 53.0248 54.3878 52.6627 53.9063 52.6627C53.1837 52.7828 52.5812 53.024 52.5812 53.8676C52.5812 54.4701 53.1837 54.3491 53.545 54.3491C54.1466 54.4701 54.3878 54.1088 54.3878 53.5063ZM99.9221 31.9438C99.1994 31.5825 98.7171 32.0639 98.2356 32.1849C97.8743 32.3051 97.6332 32.6664 97.8743 33.0286C98.1155 33.5101 98.4768 33.6311 98.9583 33.3899C99.4398 33.1487 99.801 32.6664 99.9221 31.9438ZM116.786 29.4137C115.461 29.8952 115.461 30.0162 116.545 31.9438C117.027 30.98 117.027 30.2574 116.786 29.4137ZM121.364 31.3412C121.845 30.7388 122.208 30.2573 122.569 29.896C122.81 29.5347 122.81 29.2935 122.328 29.0523C121.966 28.9322 121.725 28.9322 121.484 29.2935C121.364 29.896 121.003 30.4985 121.364 31.3412ZM32.2227 32.5462C33.1865 31.4622 33.1865 30.2572 33.4277 28.8121C32.2227 30.0162 31.9824 31.1002 32.2227 32.5462ZM50.6533 29.775C51.3759 29.5338 51.7372 29.0523 52.0985 28.3297C51.4961 27.9684 50.7734 27.9684 49.8096 27.8482C50.1717 28.691 50.413 29.2935 50.6533 29.775ZM117.268 30.1371H119.436C119.556 30.1371 119.677 29.7758 119.797 29.6556C119.797 29.4145 119.677 29.1742 119.436 29.1742C118.593 29.0523 117.871 28.9322 117.268 30.1371ZM98.3563 44.9536C98.2361 46.1586 97.9949 47.3626 97.8748 48.4465C98.7176 47.3626 98.7176 46.1576 98.3563 44.9536ZM103.897 32.9075C104.861 31.7025 105.342 31.1009 105.342 30.6185C104.259 31.3412 104.259 31.3412 103.897 32.9075ZM47.7622 28.812C48.2437 28.812 48.4848 28.4507 48.4848 27.9684C48.605 27.2458 48.0034 27.2458 47.5211 27.2458C47.1597 27.2458 46.7984 27.2458 46.7984 27.7272C46.7984 28.3297 47.0396 28.812 47.7622 28.812ZM35.9564 43.2671C36.1975 42.5445 36.0765 41.942 35.7152 41.3396C35.5951 41.0984 35.3539 40.9783 34.9926 41.0984C34.7514 41.2186 34.6313 41.5799 34.7514 41.8211C34.9934 42.3034 35.2337 42.7848 35.9564 43.2671ZM64.9875 36.1602C65.1077 35.5577 65.3488 34.9552 65.469 34.4738C65.5891 34.1124 65.2278 33.9923 64.9875 33.9923C64.7463 33.9923 64.385 34.1124 64.385 34.4738C64.2649 34.9552 64.6262 35.5577 64.9875 36.1602ZM53.6639 30.8597C54.0253 30.3782 54.2664 29.8959 54.6277 29.4144C54.0253 29.1732 53.5438 28.8119 52.58 29.1732C53.5438 29.5345 53.1825 30.3774 53.6639 30.8597ZM93.0547 37.2441C94.2597 36.4005 94.2596 36.4005 93.6572 35.3165C93.0547 35.798 92.9345 36.5215 93.0547 37.2441ZM99.0778 52.9042C99.4391 53.5067 99.1979 54.4705 100.283 54.4705L100.403 54.3503C100.403 53.5059 99.9214 53.1446 99.0778 52.9042ZM104.86 56.156H101.848C102.812 56.3972 103.776 56.6384 104.86 56.156ZM113.051 31.8229C113.172 31.9431 113.293 31.9431 113.293 32.0641C113.413 31.9439 113.534 31.7028 113.654 31.5826C113.895 31.1011 114.256 30.6188 114.015 30.0163C114.015 29.8962 113.774 29.7752 113.654 29.8962C112.931 30.1373 113.413 30.86 113.051 31.3415C113.172 31.3406 113.172 31.5818 113.051 31.8229ZM108.112 31.8229C108.594 31.3414 108.835 30.8591 108.474 30.1365C108.474 30.0163 108.112 30.0163 108.112 30.1365C107.51 30.7381 107.631 31.2205 108.112 31.8229ZM36.7994 28.8114C35.5944 29.4139 35.5944 30.1365 35.5944 31.3415C36.1969 30.618 36.6792 30.0156 36.7994 28.8114ZM109.678 31.4615C110.04 31.3414 110.281 31.1002 110.16 30.6179C110.16 30.2566 109.919 30.0154 109.678 30.0154C109.197 30.0154 109.076 30.2566 109.076 30.7381C109.076 31.0994 109.317 31.3405 109.678 31.4615ZM59.8074 35.4361C60.4099 35.7974 60.7712 35.7974 60.7712 34.9546C60.7712 34.5933 60.7712 34.4731 60.2898 34.5933C59.9285 34.7135 59.2058 34.3521 59.0848 35.0748C59.0848 35.7974 59.4461 35.4361 59.8074 35.4361ZM113.051 40.6164C113.051 40.8575 113.171 40.8575 113.292 40.7365L113.413 40.6164C113.774 40.1349 113.774 39.5324 113.654 38.6888C113.292 39.4114 112.93 39.8937 113.051 40.6164ZM109.799 34.5933C109.437 35.3159 109.317 36.0386 109.557 37.2435C110.281 36.1595 110.16 35.3159 109.799 34.5933ZM96.4274 53.5053V52.1801C96.4274 51.8188 96.4274 51.3365 95.9459 51.4575C95.5846 51.5777 95.4644 51.939 95.5846 52.3011C95.8249 52.6625 95.9459 52.9036 96.4274 53.5053ZM63.0597 33.5094C63.5412 33.3892 63.6622 32.9069 63.6622 32.5456C63.6622 32.3044 63.421 31.8229 63.1807 31.9431C62.8194 32.0633 62.6992 32.6657 62.6992 33.0271C62.5782 33.2682 62.8194 33.3884 63.0597 33.5094ZM40.8949 27.4863C40.8949 27.125 40.6537 27.0048 40.4134 27.0048C40.0521 27.0048 39.8109 27.125 39.9319 27.4863C39.9319 27.7275 40.0521 27.9678 40.2932 27.8476C40.6537 27.9678 40.7747 27.7266 40.8949 27.4863ZM39.0883 27.4863C38.1245 27.2452 37.522 27.125 36.7993 27.9678C37.6421 27.6065 38.3656 28.088 39.0883 27.4863ZM35.5945 28.4501C35.5945 28.209 35.5945 27.9686 35.2332 28.0888C34.8718 28.209 34.6307 28.5703 34.7517 28.9324C34.7517 29.0526 34.7517 29.4139 34.9928 29.2938C35.4743 29.1728 35.5945 28.9316 35.5945 28.4501ZM45.3525 29.1728C45.3525 28.9316 45.1113 28.8114 44.9912 28.8114C44.75 28.8114 44.5097 28.9316 44.5097 29.0526C44.3895 29.4139 44.7508 29.5341 44.9912 29.5341C45.2315 29.5341 45.3525 29.4131 45.3525 29.1728ZM121.725 35.7975C121.363 35.9176 121.363 36.1588 121.363 36.3999C121.363 36.5201 121.243 36.8814 121.605 36.7613C121.846 36.6411 122.086 36.3999 121.966 36.0386C121.965 35.9185 121.725 35.9185 121.725 35.7975ZM98.9576 37.4847C99.1988 37.3646 99.4391 37.1234 99.3189 36.8823C99.3189 36.6411 99.0778 36.2798 98.8375 36.4008C98.7173 36.4008 98.5963 36.8823 98.5963 37.1234C98.5963 37.2436 98.5963 37.4847 98.9576 37.4847ZM54.1461 34.2321C54.2663 33.9909 54.5074 33.7506 54.6276 33.5094C54.7478 33.3893 54.6276 33.1481 54.5074 33.1481C54.2663 33.2683 54.1461 33.5094 54.026 33.7506C53.905 33.8708 54.1461 34.1111 54.1461 34.2321ZM65.3486 40.1342C65.4687 39.8931 65.5897 39.7729 65.7099 39.6528C65.83 39.4116 66.1914 38.9301 65.7099 38.9301C65.2284 38.9301 65.2284 39.5326 65.3486 40.1342ZM96.0661 49.2897C95.825 49.2897 95.7048 49.4099 95.7048 49.651C95.7048 49.8922 95.7048 50.2535 95.825 50.2535C96.1863 50.3737 96.3064 50.1333 96.4274 49.8922C96.4274 49.5309 96.3073 49.4099 96.0661 49.2897ZM109.558 40.4963C109.799 40.8576 109.196 41.2189 109.799 41.5802C109.558 41.3391 110.04 40.8576 109.558 40.4963Z" fill="white"/>
</svg>
