<svg width="34" height="35" viewBox="0 0 34 35" fill="none" xmlns="http://www.w3.org/2000/svg">
<path d="M5.38349 24.7726C7.88434 24.9133 10.0712 24.3287 12.204 22.7806C10.0496 22.4125 8.55557 21.4273 7.74361 19.392C8.37153 19.3054 8.92366 19.4678 9.57324 19.2079C7.4513 18.2769 6.07637 16.8803 6.02224 14.4661C6.69346 14.5202 7.2023 14.9641 8.00344 14.8991C6.05472 12.9937 5.45927 10.9151 6.68263 8.39257C8.71796 10.731 11.0997 12.3225 14.012 13.0695C14.1744 13.1128 14.3259 13.1561 14.4883 13.1886C15.2353 13.3618 16.1231 13.7299 16.5778 13.6758C17.3573 13.5783 16.5778 12.6797 16.7727 11.5105C17.3897 7.87291 21.3954 6.21651 24.3618 8.34927C25.2279 8.97719 25.91 8.96636 26.7652 8.58744C27.2091 8.39257 27.6638 8.1977 28.1943 7.97035C28.0752 9.00966 27.2741 9.58345 26.6353 10.3521C27.3607 10.5145 27.9453 10.3088 28.6165 10.0923C28.3891 10.8393 27.8262 11.2615 27.3174 11.6729C26.7869 12.0951 26.5812 12.539 26.5595 13.2319C26.2347 23.7225 14.3151 31.8313 6.16299 25.3789C5.37267 24.7509 6.14132 25.3789 5.38349 24.7726Z" fill="white"/>
</svg>
